<?xml version="1.0" encoding="UTF-8"?>
<svg width="44px" height="40px" viewBox="0 0 44 40" version="1.1" xmlns="http://www.w3.org/2000/svg" xmlns:xlink="http://www.w3.org/1999/xlink">
    <!-- Generator: Sketch 41.2 (35397) - http://www.bohemiancoding.com/sketch -->
    <title>Path</title>
    <desc>Created with Sketch.</desc>
    <defs></defs>
    <g id="Page-1" stroke="none" stroke-width="1" fill="none" fill-rule="evenodd">
        <path d="M27.0200098,1.28847455 C27.0200098,1.28847455 30.8439569,7.8452411 31.4481722,11.1590659 C31.7331022,12.7217669 32.1417451,15.1004104 31.8845362,17.0777657 C31.6273273,19.0551209 30.6194535,21.0296572 30.6194535,21.0296572 C30.6194535,21.0296572 23.7816971,16.7515138 20.5674168,14.1765044 C17.3531365,11.601495 10.0215801,4.52838413 10.0215801,4.52838413 C10.0215801,4.52838413 13.819213,10.2099772 15.8983218,12.8394403 C17.9774307,15.4689035 21.6173012,19.1935717 21.6173012,19.1935717 C21.6173012,19.1935717 16.9687544,16.528045 14.7854071,14.8948267 C12.6020599,13.2616084 5.01682053,6.7758453 5.01682053,6.7758453 C5.01682053,6.7758453 10.7695407,14.9773947 14.0432153,18.5826621 C17.31689,22.1879295 24.579728,28.320293 24.579728,28.320293 C24.579728,28.320293 22.760687,29.4280824 20.5674168,30.1164717 C18.3741467,30.8048609 15.3733186,31.1801493 13.3569677,30.9463092 C9.47354287,30.495941 0.88777265,25.5726915 0.88777265,25.5726915 C0.88777265,25.5726915 6.28582966,34.5697253 13.3569677,36.8569904 C15.8478165,37.6626926 19.447655,38.8216285 24.105322,39.1626334 C25.8731932,39.2920657 21.3822371,39.4346737 27.0200098,38.6430991 C32.6577826,37.8515246 28.6591796,38.3356667 29.6329725,38.217551 C30.6766376,38.0909602 31.1853993,37.7624881 31.8845362,37.3373637 C32.5836732,36.9122394 33.2780687,36.7570196 34.0611349,36.3807195 C35.6215667,35.6308588 37.192285,35.5845429 38.1416978,35.6601595 C40.2980049,35.8318998 42.9014223,39.1626334 42.9014223,39.1626334 C42.9014223,39.1626334 43.3354477,38.0765887 43.3918656,36.8569904 C43.4482834,35.6373921 43.1281699,34.4513129 42.9014223,33.5726985 C42.4338658,31.7609846 40.0016528,27.9264465 40.0016528,27.9264465 C40.0016528,27.9264465 40.7565253,21.990031 40.0016528,19.1935717 C39.7391263,18.2210301 39.424242,14.0598714 37.4599257,11.1590659 C36.5869922,9.86996078 34.8899974,7.38186417 33.0179638,5.53314025 C31.1459302,3.68441634 28.1929712,1.64726275 28.1929712,1.64726275 L27.0200098,1.28847455 Z" id="Path" stroke="#979797"></path>
    </g>
</svg>